<mxfile host="app.diagrams.net" modified="2022-10-06T04:18:17.977Z" agent="5.0 (X11)" etag="C_5O5leIMRx5Mlqw82QV" version="20.4.0" type="github">
  <diagram id="0tWUw12LsieQtntgSHJi" name="Page-1">
    <mxGraphModel dx="1586" dy="1914" grid="1" gridSize="10" guides="1" tooltips="1" connect="1" arrows="1" fold="1" page="1" pageScale="1" pageWidth="850" pageHeight="1100" math="0" shadow="0">
      <root>
        <mxCell id="0" />
        <mxCell id="1" parent="0" />
        <mxCell id="hNng8F3hOufFW4h7wYSs-10" style="edgeStyle=orthogonalEdgeStyle;rounded=0;orthogonalLoop=1;jettySize=auto;html=1;" parent="1" source="hNng8F3hOufFW4h7wYSs-2" target="hNng8F3hOufFW4h7wYSs-6" edge="1">
          <mxGeometry relative="1" as="geometry" />
        </mxCell>
        <mxCell id="hNng8F3hOufFW4h7wYSs-2" value="&lt;div data-darkreader-inline-bgcolor=&quot;&quot; data-darkreader-inline-color=&quot;&quot; style=&quot;color: rgb(171, 178, 191); background-color: rgb(40, 44, 52); font-family: &amp;quot;Droid Sans Mono&amp;quot;, &amp;quot;monospace&amp;quot;, monospace; font-weight: normal; font-size: 14px; line-height: 19px; --darkreader-inline-color: #aea9a2; --darkreader-inline-bgcolor: #33353b;&quot;&gt;&lt;div&gt;&lt;span data-darkreader-inline-color=&quot;&quot; style=&quot;color: rgb(97, 175, 239); --darkreader-inline-color: #68a9d9;&quot;&gt;processAnUploadForMap&lt;/span&gt;&lt;span data-darkreader-inline-color=&quot;&quot; style=&quot;color: rgb(171, 178, 191); --darkreader-inline-color: #aea9a2;&quot;&gt;()&lt;/span&gt;&lt;/div&gt;&lt;/div&gt;" style="rounded=1;whiteSpace=wrap;html=1;" parent="1" vertex="1">
          <mxGeometry x="473" y="180" width="220" height="40" as="geometry" />
        </mxCell>
        <mxCell id="hNng8F3hOufFW4h7wYSs-7" value="" style="edgeStyle=orthogonalEdgeStyle;rounded=0;orthogonalLoop=1;jettySize=auto;html=1;" parent="1" source="hNng8F3hOufFW4h7wYSs-3" target="hNng8F3hOufFW4h7wYSs-6" edge="1">
          <mxGeometry relative="1" as="geometry" />
        </mxCell>
        <mxCell id="hNng8F3hOufFW4h7wYSs-3" value="&lt;div data-darkreader-inline-bgcolor=&quot;&quot; data-darkreader-inline-color=&quot;&quot; style=&quot;color: rgb(171, 178, 191); background-color: rgb(40, 44, 52); font-family: &amp;quot;Droid Sans Mono&amp;quot;, &amp;quot;monospace&amp;quot;, monospace; font-weight: normal; font-size: 14px; line-height: 19px; --darkreader-inline-color: #aea9a2; --darkreader-inline-bgcolor: #33353b;&quot;&gt;&lt;div&gt;&lt;span data-darkreader-inline-color=&quot;&quot; style=&quot;color: rgb(171, 178, 191); --darkreader-inline-color: #aea9a2;&quot;&gt; &lt;/span&gt;&lt;span data-darkreader-inline-color=&quot;&quot; style=&quot;color: rgb(97, 175, 239); --darkreader-inline-color: #68a9d9;&quot;&gt;performUploadForArray&lt;/span&gt;&lt;span data-darkreader-inline-color=&quot;&quot; style=&quot;color: rgb(171, 178, 191); --darkreader-inline-color: #aea9a2;&quot;&gt;(&lt;/span&gt;)&lt;span data-darkreader-inline-color=&quot;&quot; style=&quot;color: rgb(171, 178, 191); --darkreader-inline-color: #aea9a2;&quot;&gt;&lt;/span&gt;&lt;/div&gt;&lt;/div&gt;" style="rounded=1;whiteSpace=wrap;html=1;" parent="1" vertex="1">
          <mxGeometry x="43" y="180" width="210" height="40" as="geometry" />
        </mxCell>
        <mxCell id="hNng8F3hOufFW4h7wYSs-14" value="" style="edgeStyle=orthogonalEdgeStyle;rounded=0;orthogonalLoop=1;jettySize=auto;html=1;" parent="1" source="hNng8F3hOufFW4h7wYSs-6" target="hNng8F3hOufFW4h7wYSs-13" edge="1">
          <mxGeometry relative="1" as="geometry" />
        </mxCell>
        <mxCell id="hNng8F3hOufFW4h7wYSs-18" style="edgeStyle=orthogonalEdgeStyle;rounded=0;orthogonalLoop=1;jettySize=auto;html=1;entryX=0;entryY=0.5;entryDx=0;entryDy=0;" parent="1" source="hNng8F3hOufFW4h7wYSs-6" target="hNng8F3hOufFW4h7wYSs-15" edge="1">
          <mxGeometry relative="1" as="geometry" />
        </mxCell>
        <mxCell id="hNng8F3hOufFW4h7wYSs-6" value="&lt;div data-darkreader-inline-bgcolor=&quot;&quot; data-darkreader-inline-color=&quot;&quot; style=&quot;color: rgb(171, 178, 191); background-color: rgb(40, 44, 52); font-family: &amp;quot;Droid Sans Mono&amp;quot;, &amp;quot;monospace&amp;quot;, monospace; font-weight: normal; font-size: 14px; line-height: 19px; --darkreader-inline-color: #aea9a2; --darkreader-inline-bgcolor: #33353b;&quot; align=&quot;left&quot;&gt;&lt;div&gt;&lt;span data-darkreader-inline-color=&quot;&quot; style=&quot;color: rgb(224, 108, 117); --darkreader-inline-color: #cd7279;&quot;&gt;this&lt;/span&gt;&lt;span data-darkreader-inline-color=&quot;&quot; style=&quot;color: rgb(171, 178, 191); --darkreader-inline-color: #aea9a2;&quot;&gt;.&lt;/span&gt;&lt;span data-darkreader-inline-color=&quot;&quot; style=&quot;color: rgb(97, 175, 239); --darkreader-inline-color: #68a9d9;&quot;&gt;processAnUpload&lt;/span&gt;&lt;span data-darkreader-inline-color=&quot;&quot; style=&quot;color: rgb(171, 178, 191); --darkreader-inline-color: #aea9a2;&quot;&gt;()&lt;/span&gt; {&lt;/div&gt;&lt;div&gt;&amp;nbsp; // check file size&lt;/div&gt;&lt;div&gt;&lt;br&gt;&lt;/div&gt;&lt;div&gt;&amp;nbsp; // sanitise/generate file name&lt;/div&gt;&lt;div&gt;&lt;br&gt;&lt;/div&gt;&lt;div&gt;&amp;nbsp; // add file to context&lt;br&gt;&lt;/div&gt;&lt;div&gt;&lt;br&gt;&lt;/div&gt;&lt;div&gt;&amp;nbsp; // initializeUpload()&lt;/div&gt;&lt;div&gt;&lt;br&gt;&lt;/div&gt;&lt;div&gt;&amp;nbsp; // chunk upload&lt;/div&gt;&lt;div&gt;&lt;br&gt;&lt;/div&gt;&lt;div&gt;&amp;nbsp; // completeMultipartUpload()&lt;/div&gt;&lt;div&gt;&amp;nbsp; &lt;br&gt;&lt;/div&gt;&lt;div&gt;&amp;nbsp; // notify on success/failure&lt;/div&gt;&lt;div&gt;&lt;br&gt;&lt;/div&gt;&lt;div&gt;&amp;nbsp; // remove file from context&lt;/div&gt;&lt;div&gt;}&lt;br&gt;&lt;/div&gt;&lt;/div&gt;&lt;div&gt;&lt;br&gt;&lt;/div&gt;" style="whiteSpace=wrap;html=1;rounded=1;" parent="1" vertex="1">
          <mxGeometry x="203" y="300" width="317" height="360" as="geometry" />
        </mxCell>
        <mxCell id="hNng8F3hOufFW4h7wYSs-29" style="edgeStyle=orthogonalEdgeStyle;rounded=0;orthogonalLoop=1;jettySize=auto;html=1;entryX=0;entryY=0.5;entryDx=0;entryDy=0;fontSize=48;exitX=1;exitY=0.5;exitDx=0;exitDy=0;" parent="1" source="hNng8F3hOufFW4h7wYSs-13" target="hNng8F3hOufFW4h7wYSs-20" edge="1">
          <mxGeometry relative="1" as="geometry">
            <mxPoint x="820" y="780" as="sourcePoint" />
          </mxGeometry>
        </mxCell>
        <mxCell id="hNng8F3hOufFW4h7wYSs-13" value="&lt;div data-darkreader-inline-bgcolor=&quot;&quot; data-darkreader-inline-color=&quot;&quot; style=&quot;color: rgb(171, 178, 191); background-color: rgb(40, 44, 52); font-family: &amp;quot;Droid Sans Mono&amp;quot;, &amp;quot;monospace&amp;quot;, monospace; font-weight: normal; font-size: 14px; line-height: 19px; --darkreader-inline-color: #aea9a2; --darkreader-inline-bgcolor: #33353b;&quot;&gt;&lt;div&gt;&lt;span data-darkreader-inline-color=&quot;&quot; style=&quot;color: rgb(224, 108, 117); --darkreader-inline-color: #cd7279;&quot;&gt;this&lt;/span&gt;&lt;span data-darkreader-inline-color=&quot;&quot; style=&quot;color: rgb(171, 178, 191); --darkreader-inline-color: #aea9a2;&quot;&gt;.&lt;/span&gt;&lt;span data-darkreader-inline-color=&quot;&quot; style=&quot;color: rgb(97, 175, 239); --darkreader-inline-color: #68a9d9;&quot;&gt;initializeUpload&lt;/span&gt;&lt;span data-darkreader-inline-color=&quot;&quot; style=&quot;color: rgb(171, 178, 191); --darkreader-inline-color: #aea9a2;&quot;&gt;()&lt;/span&gt;&lt;/div&gt;&lt;/div&gt;" style="rounded=1;whiteSpace=wrap;html=1;" parent="1" vertex="1">
          <mxGeometry x="590" y="530" width="215" height="40" as="geometry" />
        </mxCell>
        <mxCell id="hNng8F3hOufFW4h7wYSs-30" style="edgeStyle=orthogonalEdgeStyle;rounded=0;orthogonalLoop=1;jettySize=auto;html=1;entryX=0;entryY=0.5;entryDx=0;entryDy=0;fontSize=48;" parent="1" source="hNng8F3hOufFW4h7wYSs-15" target="hNng8F3hOufFW4h7wYSs-28" edge="1">
          <mxGeometry relative="1" as="geometry">
            <mxPoint x="830" y="910" as="sourcePoint" />
          </mxGeometry>
        </mxCell>
        <mxCell id="hNng8F3hOufFW4h7wYSs-15" value="&lt;div data-darkreader-inline-bgcolor=&quot;&quot; data-darkreader-inline-color=&quot;&quot; style=&quot;color: rgb(171, 178, 191); background-color: rgb(40, 44, 52); font-family: &amp;quot;Droid Sans Mono&amp;quot;, &amp;quot;monospace&amp;quot;, monospace; font-weight: normal; font-size: 14px; line-height: 19px; --darkreader-inline-color: #aea9a2; --darkreader-inline-bgcolor: #33353b;&quot;&gt;&lt;div&gt;&lt;span data-darkreader-inline-color=&quot;&quot; style=&quot;color: rgb(224, 108, 117); --darkreader-inline-color: #cd7279;&quot;&gt;this&lt;/span&gt;&lt;span data-darkreader-inline-color=&quot;&quot; style=&quot;color: rgb(171, 178, 191); --darkreader-inline-color: #aea9a2;&quot;&gt;.&lt;/span&gt;&lt;span data-darkreader-inline-color=&quot;&quot; style=&quot;color: rgb(97, 175, 239); --darkreader-inline-color: #68a9d9;&quot;&gt;completeMultipartUpload&lt;/span&gt;&lt;span data-darkreader-inline-color=&quot;&quot; style=&quot;color: rgb(171, 178, 191); --darkreader-inline-color: #aea9a2;&quot;&gt;()&lt;/span&gt;&lt;/div&gt;&lt;/div&gt;" style="rounded=1;whiteSpace=wrap;html=1;" parent="1" vertex="1">
          <mxGeometry x="540" y="815" width="275" height="40" as="geometry" />
        </mxCell>
        <mxCell id="hNng8F3hOufFW4h7wYSs-19" value="" style="endArrow=none;dashed=1;html=1;rounded=0;fillColor=#f8cecc;strokeColor=#b85450;" parent="1" edge="1">
          <mxGeometry width="50" height="50" relative="1" as="geometry">
            <mxPoint x="850" y="830" as="sourcePoint" />
            <mxPoint x="850" as="targetPoint" />
          </mxGeometry>
        </mxCell>
        <mxCell id="hNng8F3hOufFW4h7wYSs-31" style="edgeStyle=orthogonalEdgeStyle;rounded=0;orthogonalLoop=1;jettySize=auto;html=1;entryX=0;entryY=0.5;entryDx=0;entryDy=0;fontSize=48;" parent="1" source="hNng8F3hOufFW4h7wYSs-20" target="hNng8F3hOufFW4h7wYSs-23" edge="1">
          <mxGeometry relative="1" as="geometry" />
        </mxCell>
        <mxCell id="hNng8F3hOufFW4h7wYSs-20" value="&lt;div data-darkreader-inline-bgcolor=&quot;&quot; data-darkreader-inline-color=&quot;&quot; style=&quot;color: rgb(171, 178, 191); background-color: rgb(40, 44, 52); font-family: &amp;quot;Droid Sans Mono&amp;quot;, &amp;quot;monospace&amp;quot;, monospace; font-weight: normal; font-size: 14px; line-height: 19px; --darkreader-inline-color: #aea9a2; --darkreader-inline-bgcolor: #33353b;&quot;&gt;&lt;div&gt;&lt;span data-darkreader-inline-color=&quot;&quot; style=&quot;color: rgb(224, 108, 117); --darkreader-inline-color: #cd7279;&quot;&gt;uploadApiClient&lt;/span&gt;&lt;span data-darkreader-inline-color=&quot;&quot; style=&quot;color: rgb(171, 178, 191); --darkreader-inline-color: #aea9a2;&quot;&gt;.&lt;/span&gt;&lt;span data-darkreader-inline-color=&quot;&quot; style=&quot;color: rgb(97, 175, 239); --darkreader-inline-color: #68a9d9;&quot;&gt;initUpload&lt;/span&gt;&lt;span data-darkreader-inline-color=&quot;&quot; style=&quot;color: rgb(171, 178, 191); --darkreader-inline-color: #aea9a2;&quot;&gt;(&lt;/span&gt;)&lt;/div&gt;&lt;/div&gt;" style="rounded=1;whiteSpace=wrap;html=1;" parent="1" vertex="1">
          <mxGeometry x="922" y="520" width="270" height="60" as="geometry" />
        </mxCell>
        <mxCell id="hNng8F3hOufFW4h7wYSs-21" value="&lt;font style=&quot;font-size: 48px;&quot;&gt;API&lt;/font&gt;" style="text;html=1;strokeColor=none;fillColor=none;align=center;verticalAlign=middle;whiteSpace=wrap;rounded=0;" parent="1" vertex="1">
          <mxGeometry x="970" y="10" width="100" height="80" as="geometry" />
        </mxCell>
        <mxCell id="Ht-KUVcO_Lstr4jTm9sh-3" style="edgeStyle=orthogonalEdgeStyle;rounded=0;orthogonalLoop=1;jettySize=auto;html=1;entryX=0;entryY=0.5;entryDx=0;entryDy=0;fontSize=48;" edge="1" parent="1" source="hNng8F3hOufFW4h7wYSs-23" target="Ht-KUVcO_Lstr4jTm9sh-1">
          <mxGeometry relative="1" as="geometry" />
        </mxCell>
        <mxCell id="Ht-KUVcO_Lstr4jTm9sh-8" style="edgeStyle=orthogonalEdgeStyle;rounded=0;orthogonalLoop=1;jettySize=auto;html=1;entryX=0;entryY=0.5;entryDx=0;entryDy=0;fontSize=48;" edge="1" parent="1" source="hNng8F3hOufFW4h7wYSs-23" target="Ht-KUVcO_Lstr4jTm9sh-6">
          <mxGeometry relative="1" as="geometry" />
        </mxCell>
        <mxCell id="Ht-KUVcO_Lstr4jTm9sh-12" style="edgeStyle=orthogonalEdgeStyle;rounded=0;orthogonalLoop=1;jettySize=auto;html=1;entryX=0;entryY=0.5;entryDx=0;entryDy=0;fontSize=48;" edge="1" parent="1" source="hNng8F3hOufFW4h7wYSs-23" target="Ht-KUVcO_Lstr4jTm9sh-10">
          <mxGeometry relative="1" as="geometry" />
        </mxCell>
        <mxCell id="Ht-KUVcO_Lstr4jTm9sh-15" style="edgeStyle=orthogonalEdgeStyle;rounded=0;orthogonalLoop=1;jettySize=auto;html=1;entryX=0;entryY=0.5;entryDx=0;entryDy=0;fontSize=48;" edge="1" parent="1" source="hNng8F3hOufFW4h7wYSs-23" target="Ht-KUVcO_Lstr4jTm9sh-4">
          <mxGeometry relative="1" as="geometry" />
        </mxCell>
        <mxCell id="hNng8F3hOufFW4h7wYSs-23" value="&lt;div data-darkreader-inline-bgcolor=&quot;&quot; data-darkreader-inline-color=&quot;&quot; style=&quot;color: rgb(171, 178, 191); background-color: rgb(40, 44, 52); font-family: &amp;quot;Droid Sans Mono&amp;quot;, &amp;quot;monospace&amp;quot;, monospace; font-weight: normal; font-size: 14px; line-height: 19px; --darkreader-inline-color: #aea9a2; --darkreader-inline-bgcolor: #33353b;&quot;&gt;&lt;div&gt;&lt;span data-darkreader-inline-color=&quot;&quot; style=&quot;color: rgb(97, 175, 239); --darkreader-inline-color: #68a9d9;&quot;&gt;initializeUpload()&lt;/span&gt;&lt;/div&gt;&lt;/div&gt;" style="rounded=1;whiteSpace=wrap;html=1;fontSize=12;" parent="1" vertex="1">
          <mxGeometry x="1482" y="490" width="170" height="60" as="geometry" />
        </mxCell>
        <mxCell id="hNng8F3hOufFW4h7wYSs-24" value="&lt;font style=&quot;font-size: 48px;&quot;&gt;Backend&lt;/font&gt;" style="text;html=1;strokeColor=none;fillColor=none;align=center;verticalAlign=middle;whiteSpace=wrap;rounded=0;fontSize=12;" parent="1" vertex="1">
          <mxGeometry x="1410" y="20" width="250" height="70" as="geometry" />
        </mxCell>
        <mxCell id="hNng8F3hOufFW4h7wYSs-25" value="&lt;font style=&quot;font-size: 48px;&quot;&gt;Frontend&lt;/font&gt;" style="text;html=1;strokeColor=none;fillColor=none;align=center;verticalAlign=middle;whiteSpace=wrap;rounded=0;" parent="1" vertex="1">
          <mxGeometry x="230" y="20" width="290" height="90" as="geometry" />
        </mxCell>
        <mxCell id="hNng8F3hOufFW4h7wYSs-26" value="" style="endArrow=none;dashed=1;html=1;dashPattern=1 3;strokeWidth=2;rounded=0;fontSize=48;fillColor=#f8cecc;strokeColor=#b85450;" parent="1" edge="1">
          <mxGeometry width="50" height="50" relative="1" as="geometry">
            <mxPoint x="1260" y="820" as="sourcePoint" />
            <mxPoint x="1260" as="targetPoint" />
          </mxGeometry>
        </mxCell>
        <mxCell id="Ht-KUVcO_Lstr4jTm9sh-14" value="" style="edgeStyle=orthogonalEdgeStyle;rounded=0;orthogonalLoop=1;jettySize=auto;html=1;fontSize=48;" edge="1" parent="1" source="hNng8F3hOufFW4h7wYSs-28" target="Ht-KUVcO_Lstr4jTm9sh-13">
          <mxGeometry relative="1" as="geometry">
            <Array as="points">
              <mxPoint x="1577" y="830" />
              <mxPoint x="1577" y="880" />
            </Array>
          </mxGeometry>
        </mxCell>
        <mxCell id="hNng8F3hOufFW4h7wYSs-28" value="&lt;div data-darkreader-inline-bgcolor=&quot;&quot; data-darkreader-inline-color=&quot;&quot; style=&quot;color: rgb(171, 178, 191); background-color: rgb(40, 44, 52); font-family: &amp;quot;Droid Sans Mono&amp;quot;, &amp;quot;monospace&amp;quot;, monospace; font-weight: normal; font-size: 14px; line-height: 19px; --darkreader-inline-color: #aea9a2; --darkreader-inline-bgcolor: #33353b;&quot;&gt;&lt;div&gt;&lt;span data-darkreader-inline-color=&quot;&quot; style=&quot;color: rgb(224, 108, 117); --darkreader-inline-color: #cd7279;&quot;&gt;uploadApiClient&lt;/span&gt;&lt;span data-darkreader-inline-color=&quot;&quot; style=&quot;color: rgb(171, 178, 191); --darkreader-inline-color: #aea9a2;&quot;&gt;.&lt;/span&gt;&lt;span data-darkreader-inline-color=&quot;&quot; style=&quot;color: rgb(97, 175, 239); --darkreader-inline-color: #68a9d9;&quot;&gt;completeMultipartUpload()&lt;/span&gt;&lt;/div&gt;&lt;/div&gt;" style="rounded=1;whiteSpace=wrap;html=1;fontSize=48;" parent="1" vertex="1">
          <mxGeometry x="892" y="810" width="370" height="60" as="geometry" />
        </mxCell>
        <mxCell id="Ht-KUVcO_Lstr4jTm9sh-1" value="&lt;div data-darkreader-inline-bgcolor=&quot;&quot; data-darkreader-inline-color=&quot;&quot; style=&quot;color: rgb(171, 178, 191); background-color: rgb(40, 44, 52); font-family: &amp;quot;Droid Sans Mono&amp;quot;, &amp;quot;monospace&amp;quot;, monospace; font-weight: normal; font-size: 14px; line-height: 19px; --darkreader-inline-color: #aea9a2; --darkreader-inline-bgcolor: #33353b;&quot;&gt;&lt;div&gt;&lt;span data-darkreader-inline-color=&quot;&quot; style=&quot;color: rgb(97, 175, 239); --darkreader-inline-color: #68a9d9;&quot;&gt;_createMultipartUpload&lt;/span&gt;()&lt;/div&gt;&lt;/div&gt;" style="rounded=1;whiteSpace=wrap;html=1;" vertex="1" parent="1">
          <mxGeometry x="1952" y="510" width="220" height="60" as="geometry" />
        </mxCell>
        <mxCell id="Ht-KUVcO_Lstr4jTm9sh-4" value="&lt;div data-darkreader-inline-bgcolor=&quot;&quot; data-darkreader-inline-color=&quot;&quot; style=&quot;color: rgb(171, 178, 191); background-color: rgb(40, 44, 52); font-family: &amp;quot;Droid Sans Mono&amp;quot;, &amp;quot;monospace&amp;quot;, monospace; font-weight: normal; font-size: 14px; line-height: 19px; --darkreader-inline-color: #aea9a2; --darkreader-inline-bgcolor: #33353b;&quot;&gt;&lt;div&gt;&lt;span data-darkreader-inline-color=&quot;&quot; style=&quot;color: rgb(97, 175, 239); --darkreader-inline-color: #68a9d9;&quot;&gt;_getSignedUrlsForMultipartUpload&lt;/span&gt;&lt;span data-darkreader-inline-color=&quot;&quot; style=&quot;color: rgb(171, 178, 191); --darkreader-inline-color: #aea9a2;&quot;&gt;()&lt;/span&gt;&lt;/div&gt;&lt;/div&gt;" style="whiteSpace=wrap;html=1;rounded=1;" vertex="1" parent="1">
          <mxGeometry x="1952" y="590" width="310" height="70" as="geometry" />
        </mxCell>
        <mxCell id="Ht-KUVcO_Lstr4jTm9sh-6" value="&lt;div data-darkreader-inline-bgcolor=&quot;&quot; data-darkreader-inline-color=&quot;&quot; style=&quot;color: rgb(171, 178, 191); background-color: rgb(40, 44, 52); font-family: &amp;quot;Droid Sans Mono&amp;quot;, &amp;quot;monospace&amp;quot;, monospace; font-weight: normal; font-size: 14px; line-height: 19px; --darkreader-inline-color: #aea9a2; --darkreader-inline-bgcolor: #33353b;&quot;&gt;&lt;div&gt;&lt;span data-darkreader-inline-color=&quot;&quot; style=&quot;color: rgb(97, 175, 239); --darkreader-inline-color: #68a9d9;&quot;&gt;getSignedUrlForUpload()&lt;/span&gt;&lt;/div&gt;&lt;/div&gt;" style="whiteSpace=wrap;html=1;rounded=1;" vertex="1" parent="1">
          <mxGeometry x="1952" y="430" width="210" height="60" as="geometry" />
        </mxCell>
        <mxCell id="Ht-KUVcO_Lstr4jTm9sh-10" value="&lt;div data-darkreader-inline-bgcolor=&quot;&quot; data-darkreader-inline-color=&quot;&quot; style=&quot;color: rgb(171, 178, 191); background-color: rgb(40, 44, 52); font-family: &amp;quot;Droid Sans Mono&amp;quot;, &amp;quot;monospace&amp;quot;, monospace; font-weight: normal; font-size: 14px; line-height: 19px; --darkreader-inline-color: #aea9a2; --darkreader-inline-bgcolor: #33353b;&quot;&gt;&lt;div&gt;&lt;span data-darkreader-inline-color=&quot;&quot; style=&quot;color: rgb(171, 178, 191); --darkreader-inline-color: #aea9a2;&quot;&gt;UploadDb.&lt;/span&gt;&lt;span data-darkreader-inline-color=&quot;&quot; style=&quot;color: rgb(97, 175, 239); --darkreader-inline-color: #68a9d9;&quot;&gt;build&lt;/span&gt;&lt;span data-darkreader-inline-color=&quot;&quot; style=&quot;color: rgb(171, 178, 191); --darkreader-inline-color: #aea9a2;&quot;&gt;()&lt;/span&gt;&lt;/div&gt;&lt;div&gt;&lt;div data-darkreader-inline-bgcolor=&quot;&quot; data-darkreader-inline-color=&quot;&quot; style=&quot;color: rgb(171, 178, 191); background-color: rgb(40, 44, 52); font-family: &amp;quot;Droid Sans Mono&amp;quot;, &amp;quot;monospace&amp;quot;, monospace; font-weight: normal; font-size: 14px; line-height: 19px; --darkreader-inline-color: #aea9a2; --darkreader-inline-bgcolor: #33353b;&quot;&gt;&lt;div&gt;&lt;span data-darkreader-inline-color=&quot;&quot; style=&quot;color: rgb(171, 178, 191); --darkreader-inline-color: #aea9a2;&quot;&gt;uploadData.&lt;/span&gt;&lt;span data-darkreader-inline-color=&quot;&quot; style=&quot;color: rgb(97, 175, 239); --darkreader-inline-color: #68a9d9;&quot;&gt;save&lt;/span&gt;&lt;span data-darkreader-inline-color=&quot;&quot; style=&quot;color: rgb(171, 178, 191); --darkreader-inline-color: #aea9a2;&quot;&gt;()&lt;/span&gt;&lt;/div&gt;&lt;div&gt;&lt;div data-darkreader-inline-bgcolor=&quot;&quot; data-darkreader-inline-color=&quot;&quot; style=&quot;color: rgb(171, 178, 191); background-color: rgb(40, 44, 52); font-family: &amp;quot;Droid Sans Mono&amp;quot;, &amp;quot;monospace&amp;quot;, monospace; font-weight: normal; font-size: 14px; line-height: 19px; --darkreader-inline-color: #aea9a2; --darkreader-inline-bgcolor: #33353b;&quot;&gt;&lt;div&gt;&lt;span data-darkreader-inline-color=&quot;&quot; style=&quot;color: rgb(171, 178, 191); --darkreader-inline-color: #aea9a2;&quot;&gt;upload.&lt;/span&gt;&lt;span data-darkreader-inline-color=&quot;&quot; style=&quot;color: rgb(97, 175, 239); --darkreader-inline-color: #68a9d9;&quot;&gt;get&lt;/span&gt;&lt;span data-darkreader-inline-color=&quot;&quot; style=&quot;color: rgb(171, 178, 191); --darkreader-inline-color: #aea9a2;&quot;&gt;()&lt;/span&gt;&lt;/div&gt;&lt;/div&gt;&lt;/div&gt;&lt;/div&gt;&lt;/div&gt;&lt;/div&gt;" style="whiteSpace=wrap;html=1;rounded=1;" vertex="1" parent="1">
          <mxGeometry x="1952" y="740" width="180" height="80" as="geometry" />
        </mxCell>
        <mxCell id="Ht-KUVcO_Lstr4jTm9sh-13" value="&lt;div data-darkreader-inline-bgcolor=&quot;&quot; data-darkreader-inline-color=&quot;&quot; style=&quot;color: rgb(171, 178, 191); background-color: rgb(40, 44, 52); font-family: &amp;quot;Droid Sans Mono&amp;quot;, &amp;quot;monospace&amp;quot;, monospace; font-weight: normal; font-size: 14px; line-height: 19px; --darkreader-inline-color: #aea9a2; --darkreader-inline-bgcolor: #33353b;&quot;&gt;&lt;div&gt;&lt;span data-darkreader-inline-color=&quot;&quot; style=&quot;color: rgb(97, 175, 239); --darkreader-inline-color: #68a9d9;&quot;&gt;_completeMultipartUpload()&lt;/span&gt;&lt;/div&gt;&lt;/div&gt;" style="whiteSpace=wrap;html=1;fontSize=48;rounded=1;" vertex="1" parent="1">
          <mxGeometry x="1442" y="800" width="240" height="70" as="geometry" />
        </mxCell>
      </root>
    </mxGraphModel>
  </diagram>
</mxfile>
